<svg id="Layer_1" data-name="Layer 1" xmlns="http://www.w3.org/2000/svg" viewBox="0 0 615.96803 118.88847"><defs><style>.cls-1{fill:#fff;}</style></defs><path class="cls-1" d="M11.97994,68.99733c44.724-3.82025,92.26422-7.136,137.241-9.67188,22.8958-1.355,45.8618-2.77778,68.79849-3.00323,11.25-.05094,23.04287-.59656,34.297-1.01468,1.89167-.076,9.02989-.3265,10.61717-.39864a2.63371,2.63371,0,0,0,2.45461-1.8876,1.89052,1.89052,0,0,0-.08.53144c.02433-2.3442.14588-5.99638.178-8.369l.09225-4.3199.02307-1.08a5.25849,5.25849,0,0,1,3.12724-5.05046l-.41734.22468.99039-.65352.21368-.12654c15.08506-9.23713,31.741-15.72013,48.69535-20.58221C352.76347,3.8434,396.1552.62409,430.75949,11.28433a107.23272,107.23272,0,0,1,14.29542,5.56684c20.19529,9.0532,35.3654,25.18592,52.00254,38.00377l.18591.13513c-.00861-.00474.15048.10626.00415.00647a2.059,2.059,0,0,0-.49539-.233,2.1405,2.1405,0,0,0-.36881-.0793c6.743.721,18.23709,2.23212,25.02091,3.10187,19.92957,2.2875,39.54122,6.755,58.9626,11.764,9.682,2.59224,19.44609,5.38251,28.69114,9.26522,5.3514,2.09672,11.1339,3.66332,15.935,7.0279,3.85419,3.77708,3.84787,10.44224.50737,14.53556-3.64638,4.06866-9.03831,5.448-13.93727,7.1434-4.765,1.51815-9.53175,3.03019-14.34571,4.47841l-14.55658,3.724c-4.05332,1.02131-10.44342,2.37712-14.64109,3.27367a216.95072,216.95072,0,0,1-29.62654,4.53725q11.11995-1.5829,22.06627-4.07059c3.515-.92872,10.93237-2.82627,14.46957-3.7668,11.217-2.95692,24.76929-7.04713,35.62787-11.11768,4.39225-1.64259,9.20543-2.88444,12.36063-6.43828,1.9672-2.37353,2.02618-7.258-.2813-9.572-4.62239-2.9325-9.81288-4.33028-14.92471-6.27262-9.22063-3.75895-18.73858-6.35521-28.36317-8.82975-14.433-3.58953-29.06407-6.78231-43.76346-9.14743-8.33639-1.28928-21.06782-2.5785-29.62472-3.64459-3.33062-.39548-6.76008-.7169-10.10188-1.07886a3.44448,3.44448,0,0,1-.59838-.12215,3.55465,3.55465,0,0,1-1.08626-.601q-1.75052-1.2414-3.458-2.53454c-4.0229-2.9936-7.87639-6.42234-11.61857-9.68825-11.21026-9.55819-22.90066-18.76563-36.34936-24.86472C408.93666,6.05984,362.634,9.00892,326.97285,17.34862c-19.05221,4.95719-37.89891,11.588-54.82746,21.7575l.21336-.1263-.99585.64516-.41765.22488a.37259.37259,0,0,0,.21388-.31906l-.01581.53428c-.07716,3.942-.29121,8.89177-.37946,12.82422.14541,4.102-3.86372,7.3501-7.761,7.4l-.26835.00794-.53672.01573-1.07341.03147c-7.83116.23411-17.97036.52413-25.7949.8595-27.01294.18155-58.74363,1.24829-85.88271,2.62411C103.80355,65.54144,57.63217,67.553,11.97994,68.99733Z" transform="translate(-11.97994 -4.64703)"/></svg>